<svg width="1715" height="1052" viewBox="0 0 1715 1052" fill="none" xmlns="http://www.w3.org/2000/svg">
<path d="M1714 1.0002L1714.25 1.0002L1714.25 0.750202L1714 0.750202L1714 1.0002ZM1714 1051L1714 1051.25L1714.25 1051.25L1714.25 1051L1714 1051ZM659.847 1051L659.597 1051L659.597 1051.25L659.847 1051.25L659.847 1051ZM659.848 1.00008L659.848 0.750076L659.848 0.750076L659.848 1.00008ZM659.848 263.5L659.848 263.75L660.098 263.75L660.098 263.5L659.848 263.5ZM396.31 263.5L396.06 263.5L396.06 263.75L396.31 263.75L396.31 263.5ZM659.848 394.759L659.848 395.009L660.098 395.009L660.098 394.759L659.848 394.759ZM659.848 263.509L660.098 263.509L660.098 263.259L659.848 263.259L659.848 263.509ZM396.307 394.75L396.307 395L396.557 395L396.557 394.75L396.307 394.75ZM1.00018 1.0001L1.00018 0.750097L0.750183 0.750097L0.750183 1.0001L1.00018 1.0001ZM1.00004 394.75L0.750044 394.75L0.750044 394.75L1.00004 394.75ZM396.31 263.509L396.31 263.259L396.06 263.259L396.06 263.509L396.31 263.509ZM396.31 394.759L396.06 394.759L396.06 395.009L396.31 395.009L396.31 394.759ZM1186.92 1051L1186.92 1050.75L1186.92 1051ZM659.847 526L659.597 526L659.847 526ZM1186.92 1.00014L1186.92 0.750139L1186.92 1.00014ZM1714 526L1713.75 526L1714 526ZM198.882 393.989L198.882 393.739L198.882 393.989ZM198.882 2.92529L198.882 2.67529L198.882 2.92529ZM660.377 1050.93L660.377 1051.18L660.627 1051.18L660.627 1050.93L660.377 1050.93ZM659.772 394.75L660.022 394.75L660.022 394.5L659.772 394.5L659.772 394.75ZM1.60536 1050.93L1.35536 1050.93L1.35559 1051.18L1.60536 1051.18L1.60536 1050.93ZM330.831 1047.04L330.831 1047.29L330.831 1047.04ZM4.67361 722.165L4.92361 722.165L4.67361 722.165ZM330.831 397.294L330.831 397.544L330.831 397.294ZM656.988 722.165L657.238 722.165L656.988 722.165ZM528.1 265.132L528.1 265.382L528.1 265.132ZM395.782 133.336L395.532 133.336L395.782 133.336ZM528.1 1.53977L528.1 1.78977L528.1 1.53977ZM660.417 133.336L660.167 133.336L660.417 133.336ZM461.998 389.92L461.998 390.17L461.998 389.92ZM461.998 266.018L461.998 266.268L461.998 266.018ZM593.952 389.92L593.952 390.17L593.952 389.92ZM593.952 266.018L593.952 266.268L593.952 266.018ZM1713.75 1.0002L1713.75 1051L1714.25 1051L1714.25 1.0002L1713.75 1.0002ZM1714 1050.75L659.847 1050.75L659.847 1051.25L1714 1051.25L1714 1050.75ZM660.097 1051L660.098 1.00008L659.598 1.00008L659.597 1051L660.097 1051ZM659.848 1.25008L1714 1.2502L1714 0.750202L659.848 0.750076L659.848 1.25008ZM660.098 263.5L660.098 1.00008L659.598 1.00008L659.598 263.5L660.098 263.5ZM659.848 0.750076L396.31 0.750125L396.31 1.25012L659.848 1.25008L659.848 0.750076ZM396.06 1.00012L396.06 263.5L396.56 263.5L396.56 1.00012L396.06 1.00012ZM396.31 263.75L659.848 263.75L659.848 263.25L396.31 263.25L396.31 263.75ZM660.098 394.759L660.098 263.509L659.598 263.509L659.598 394.759L660.098 394.759ZM659.848 263.259L528.079 263.259L528.079 263.759L659.848 263.759L659.848 263.259ZM527.829 263.509L527.829 394.759L528.329 394.759L528.329 263.509L527.829 263.509ZM528.079 395.009L659.848 395.009L659.848 394.509L528.079 394.509L528.079 395.009ZM396.557 394.75L396.56 1.00013L396.06 1.00012L396.057 394.75L396.557 394.75ZM396.31 0.750125L1.00018 0.750097L1.00018 1.2501L396.31 1.25012L396.31 0.750125ZM0.750183 1.0001L0.750044 394.75L1.25004 394.75L1.25018 1.0001L0.750183 1.0001ZM1.00004 395L396.307 395L396.307 394.5L1.00004 394.5L1.00004 395ZM528.079 263.259L396.31 263.259L396.31 263.759L528.079 263.759L528.079 263.259ZM396.06 263.509L396.06 394.759L396.56 394.759L396.56 263.509L396.06 263.509ZM396.31 395.009L528.079 395.009L528.079 394.509L396.31 394.509L396.31 395.009ZM1186.92 1050.75C895.965 1050.75 660.097 815.811 660.097 526L659.597 526C659.597 816.089 895.69 1051.25 1186.92 1051.25L1186.92 1050.75ZM660.097 526C660.097 236.19 895.965 1.2501 1186.92 1.25014L1186.92 0.750139C895.69 0.750104 659.597 235.912 659.597 526L660.097 526ZM1186.92 1.25014C1477.88 1.25017 1713.75 236.19 1713.75 526L1714.25 526C1714.25 235.912 1478.16 0.750174 1186.92 0.750139L1186.92 1.25014ZM1713.75 526C1713.75 815.811 1477.88 1050.75 1186.92 1050.75L1186.92 1051.25C1478.16 1051.25 1714.25 816.089 1714.25 526L1713.75 526ZM198.882 393.739C90.6027 393.739 2.8267 306.307 2.82671 198.457L2.32671 198.457C2.3267 306.585 90.3284 394.239 198.882 394.239L198.882 393.739ZM2.82671 198.457C2.82673 90.6069 90.6027 3.17528 198.882 3.17529L198.882 2.67529C90.3285 2.67528 2.32673 90.3289 2.32671 198.457L2.82671 198.457ZM198.882 3.17529C307.161 3.17531 394.937 90.6069 394.937 198.457L395.437 198.457C395.437 90.3289 307.436 2.67531 198.882 2.67529L198.882 3.17529ZM394.937 198.457C394.937 306.307 307.161 393.739 198.882 393.739L198.882 394.239C307.436 394.239 395.437 306.585 395.437 198.457L394.937 198.457ZM660.627 1050.93L660.022 394.75L659.522 394.75L660.127 1050.93L660.627 1050.93ZM659.772 394.5L1.00004 394.5L1.00004 395L659.772 395L659.772 394.5ZM0.750044 394.75L1.35536 1050.93L1.85536 1050.93L1.25004 394.75L0.750044 394.75ZM1.60536 1051.18L660.377 1051.18L660.377 1050.68L1.60536 1050.68L1.60536 1051.18ZM330.831 1046.79C150.836 1046.79 4.92359 901.447 4.92361 722.165L4.42361 722.165C4.42359 901.725 150.562 1047.29 330.831 1047.29L330.831 1046.79ZM4.92361 722.165C4.92364 542.883 150.836 397.544 330.831 397.544L330.831 397.044C150.562 397.044 4.42364 542.605 4.42361 722.165L4.92361 722.165ZM330.831 397.544C510.825 397.544 656.738 542.883 656.738 722.165L657.238 722.165C657.238 542.605 511.099 397.044 330.831 397.044L330.831 397.544ZM656.738 722.165C656.738 901.447 510.825 1046.79 330.831 1046.79L330.831 1047.29C511.099 1047.29 657.238 901.725 657.238 722.165L656.738 722.165ZM528.1 264.882C455.16 264.882 396.032 205.986 396.032 133.336L395.532 133.336C395.532 206.264 454.886 265.382 528.1 265.382L528.1 264.882ZM396.032 133.336C396.032 60.6859 455.16 1.78976 528.1 1.78977L528.1 1.28977C454.886 1.28976 395.532 60.4079 395.532 133.336L396.032 133.336ZM528.1 1.78977C601.039 1.78978 660.167 60.686 660.167 133.336L660.667 133.336C660.667 60.4079 601.314 1.28978 528.1 1.28977L528.1 1.78977ZM660.167 133.336C660.167 205.986 601.039 264.882 528.1 264.882L528.1 265.382C601.314 265.382 660.667 206.264 660.667 133.336L660.167 133.336ZM461.998 389.67C427.785 389.67 400.051 362.045 400.051 327.969L399.551 327.969C399.551 362.323 427.51 390.17 461.998 390.17L461.998 389.67ZM400.051 327.969C400.051 293.893 427.785 266.268 461.998 266.268L461.998 265.768C427.51 265.768 399.551 293.615 399.551 327.969L400.051 327.969ZM461.998 266.268C496.211 266.268 523.944 293.893 523.944 327.969L524.444 327.969C524.444 293.615 496.485 265.768 461.998 265.768L461.998 266.268ZM523.944 327.969C523.944 362.045 496.211 389.67 461.998 389.67L461.998 390.17C496.485 390.17 524.444 362.323 524.444 327.969L523.944 327.969ZM593.952 389.67C559.739 389.67 532.006 362.045 532.006 327.969L531.506 327.969C531.506 362.323 559.465 390.17 593.952 390.17L593.952 389.67ZM532.006 327.969C532.006 293.893 559.739 266.268 593.952 266.268L593.952 265.768C559.465 265.768 531.506 293.615 531.506 327.969L532.006 327.969ZM593.952 266.268C628.165 266.268 655.899 293.893 655.899 327.969L656.399 327.969C656.399 293.615 628.439 265.768 593.952 265.768L593.952 266.268ZM655.899 327.969C655.899 362.045 628.165 389.67 593.952 389.67L593.952 390.17C628.439 390.17 656.399 362.323 656.399 327.969L655.899 327.969Z" fill="white" fill-opacity="0.4"/>
</svg>
